<?xml version="1.0" standalone="no"?><!DOCTYPE svg PUBLIC "-//W3C//DTD SVG 1.1//EN" "http://www.w3.org/Graphics/SVG/1.1/DTD/svg11.dtd"><svg class="icon" width="32px" height="32.00px" viewBox="0 0 1024 1024" version="1.1" xmlns="http://www.w3.org/2000/svg"><path fill="#ffffff" d="M528.5888 547.84A226.3552 226.3552 0 1 0 286.72 547.84a339.3024 339.3024 0 0 0-217.9072 316.416 28.16 28.16 0 0 0 56.32 0 282.8288 282.8288 0 0 1 266.24-281.9584c5.12 0.4096 10.8032 0.6656 16.3328 0.6656s10.9056 0 16.3328-0.6656a282.8288 282.8288 0 0 1 266.24 281.9584 28.16 28.16 0 1 0 56.32 0 339.3536 339.3536 0 0 0-218.0096-316.416zM237.7216 356.5056a170.0352 170.0352 0 1 1 185.8048 169.2672c-5.12 0-10.24-0.3584-15.7696-0.3584s-10.5472 0-15.8208 0.3584a170.24 170.24 0 0 1-154.2144-169.2672z"  /><path fill="#ffffff" d="M793.2416 528.7424a187.8016 187.8016 0 0 0-109.0048-340.7872 28.16 28.16 0 0 0 0 56.32A131.584 131.584 0 0 1 696.7808 506.88c-4.1984 0-8.3456-0.3072-12.544-0.3072a28.16 28.16 0 0 0-28.16 28.16v0.9216a28.16 28.16 0 0 0 28.16 28.16c4.4032 0 8.7552 0 13.1072-0.512a222.464 222.464 0 0 1 208.896 221.696 28.16 28.16 0 0 0 56.32 0 278.9376 278.9376 0 0 0-169.3184-256.256z"  /></svg>