<?xml version="1.0" standalone="no"?><!DOCTYPE svg PUBLIC "-//W3C//DTD SVG 1.1//EN" "http://www.w3.org/Graphics/SVG/1.1/DTD/svg11.dtd"><svg class="icon" width="32px" height="32.00px" viewBox="0 0 1024 1024" version="1.1" xmlns="http://www.w3.org/2000/svg"><path fill="#ffffff" d="M251.254418 224.735437l695.848215 0 0 52.188616-695.848215 0 0-52.188616Z"  /><path fill="#ffffff" d="M251.254418 485.678518l695.848215 0 0 52.188616-695.848215 0 0-52.188616Z"  /><path fill="#ffffff" d="M251.254418 746.621599l695.848215 0 0 52.188616-695.848215 0 0-52.188616Z"  /><path fill="#ffffff" d="M77.292364 224.735437l52.188616 0 0 52.188616-52.188616 0 0-52.188616Z"  /><path fill="#ffffff" d="M77.292364 485.678518l52.188616 0 0 52.188616-52.188616 0 0-52.188616Z"  /><path fill="#ffffff" d="M77.292364 746.621599l52.188616 0 0 52.188616-52.188616 0 0-52.188616Z"  /></svg>